<?xml version="1.0" standalone="no"?>
<!DOCTYPE svg PUBLIC "-//W3C//DTD SVG 20010904//EN"
 "http://www.w3.org/TR/2001/REC-SVG-20010904/DTD/svg10.dtd">
<svg version="1.0" xmlns="http://www.w3.org/2000/svg"
 width="512.000000pt" height="512.000000pt" viewBox="0 0 512.000000 512.000000"
 preserveAspectRatio="xMidYMid meet">

<g transform="translate(0.000000,512.000000) scale(0.100000,-0.100000)"
fill="#000000" stroke="none">
<path d="M2840 4920 c-1343 -4 -1663 -8 -1695 -19 -145 -48 -281 -160 -347
-287 -71 -135 -68 -85 -78 -1313 -5 -608 -10 -1262 -10 -1453 l0 -348 -299 0
c-293 0 -299 0 -331 -22 -18 -13 -43 -36 -54 -51 -20 -27 -21 -40 -21 -310 0
-265 1 -287 23 -362 46 -159 154 -316 281 -409 89 -66 216 -119 331 -140 19
-4 684 -6 1478 -6 1600 0 1509 -3 1660 66 206 94 351 259 419 479 l28 90 3
1308 3 1307 388 0 c386 0 388 0 421 23 18 12 43 35 54 50 20 28 21 40 24 437
3 461 -1 501 -64 629 -49 99 -161 212 -260 264 -74 38 -163 63 -249 69 -27 1
-795 1 -1705 -2z m1126 -347 c-7 -16 -22 -53 -32 -83 -18 -53 -19 -135 -24
-1840 l-5 -1785 -23 -57 c-52 -130 -153 -227 -277 -268 -99 -33 -224 -26 -317
17 -119 56 -200 149 -239 274 -16 52 -19 94 -19 298 0 226 -1 239 -22 281 -13
25 -38 55 -57 67 l-34 23 -943 0 -944 0 1 483 c0 265 4 916 8 1447 8 935 8
966 28 1010 29 65 66 105 125 134 l52 26 1368 0 1369 0 -15 -27z m669 3 c58
-27 104 -73 137 -136 22 -44 23 -52 26 -357 l3 -313 -286 0 -285 0 0 298 c0
339 3 359 73 438 57 65 123 94 212 94 53 0 82 -6 120 -24z m-1925 -3546 c0
-219 17 -285 128 -502 2 -5 -482 -8 -1075 -8 -1150 0 -1113 -1 -1210 48 -58
30 -134 103 -170 163 -49 82 -63 152 -63 311 l0 138 1195 0 1195 0 0 -150z" fill="white"/>
<path d="M1497 4026 c-77 -28 -112 -81 -105 -161 5 -61 33 -106 82 -129 30
-14 89 -16 480 -16 493 0 492 0 539 62 57 74 38 181 -41 230 -37 23 -38 23
-477 25 -354 2 -447 0 -478 -11z" fill="white"/>
<path d="M1490 3389 c-14 -6 -36 -20 -48 -32 -78 -72 -68 -185 21 -251 28 -21
30 -21 972 -21 942 0 944 0 972 21 98 73 98 195 0 268 -28 21 -32 21 -960 23
-606 1 -941 -2 -957 -8z" fill="white"/>
<path d="M1466 2737 c-104 -59 -102 -209 4 -271 35 -21 45 -21 965 -21 920 0
930 0 965 21 106 62 108 212 4 271 l-39 23 -930 0 -930 0 -39 -23z" fill="white"/>
<path d="M1462 2100 c-95 -58 -97 -205 -3 -267 l34 -23 941 0 c921 0 942 0
974 20 97 60 97 210 0 270 -32 20 -53 20 -973 20 -920 0 -941 0 -973 -20z" fill="white"/>
</g>
</svg>
