<?xml version="1.0" standalone="no"?>
<!DOCTYPE svg PUBLIC "-//W3C//DTD SVG 20010904//EN"
 "http://www.w3.org/TR/2001/REC-SVG-20010904/DTD/svg10.dtd">
<svg version="1.0" xmlns="http://www.w3.org/2000/svg"
 width="512.000000pt" height="512.000000pt" viewBox="0 0 512.000000 512.000000"
 preserveAspectRatio="xMidYMid meet">

<g transform="translate(0.000000,512.000000) scale(0.100000,-0.100000)"
fill="#000000" stroke="none">
<path d="M292 5104 c-96 -25 -187 -96 -240 -185 -55 -91 -52 31 -52 -2359 0
-2391 -3 -2268 52 -2359 30 -51 85 -107 138 -141 99 -64 4 -61 1791 -58 l1624
3 58 23 c81 33 168 116 209 200 l33 67 3 643 3 644 592 755 c326 415 597 768
604 786 19 53 16 110 -10 148 -25 38 -341 299 -399 329 -50 27 -120 26 -169
-2 -28 -15 -115 -119 -320 -380 -154 -197 -285 -361 -290 -364 -5 -3 -9 256
-9 633 l0 638 -482 483 c-266 266 -495 490 -510 498 -40 21 -2546 20 -2626 -2z
m2510 -537 l3 -394 30 -49 c19 -30 49 -60 79 -79 l49 -30 394 -3 393 -3 0
-687 -1 -687 -242 -305 -243 -305 -828 -5 c-805 -5 -828 -6 -842 -24 -21 -30
-18 -89 7 -112 20 -18 52 -19 779 -24 l757 -5 -156 -197 -155 -196 -101 -359
-101 -358 -508 -5 c-488 -5 -508 -6 -522 -24 -21 -30 -18 -89 7 -112 20 -18
51 -19 873 -22 468 -1 866 0 884 3 18 3 42 15 53 26 23 23 25 77 5 105 -13 17
-31 19 -218 24 l-203 5 215 122 215 122 155 197 155 197 9 -517 8 -516 -27
-56 c-30 -61 -84 -108 -146 -124 -24 -7 -587 -9 -1646 -8 l-1610 3 -49 30
c-30 19 -60 49 -79 79 l-30 49 0 2236 0 2236 28 47 c30 51 70 84 126 104 29
10 286 13 1258 14 l1222 0 3 -393z m498 -62 l335 -335 -313 0 -313 0 -24 25
-25 24 0 311 c0 170 1 310 3 310 1 0 153 -151 337 -335z m1489 -1187 c91 -73
168 -133 170 -134 2 -2 -40 -60 -94 -129 -67 -87 -100 -123 -108 -117 -7 5
-84 64 -172 132 -88 68 -164 126 -169 131 -11 10 173 249 192 249 8 0 89 -59
181 -132z m-138 -536 c-11 -15 -31 -40 -44 -56 l-24 -29 -176 137 c-98 76
-177 140 -177 143 0 4 18 30 41 59 l41 53 179 -140 179 -140 -19 -27z m-346
-79 l174 -137 -33 -40 c-18 -23 -268 -339 -555 -703 l-523 -663 -76 60 c-225
174 -276 216 -275 223 1 13 1095 1397 1104 1397 5 0 87 -62 184 -137z m-1205
-1537 c120 -94 138 -111 123 -120 -10 -5 -103 -58 -208 -117 -104 -60 -191
-106 -193 -105 -2 2 24 104 57 225 34 122 61 224 61 227 0 12 25 -5 160 -110z" fill="white"/>
<path d="M501 4444 c-26 -33 -27 -75 -2 -105 l19 -24 685 -3 c681 -2 684 -2
710 19 34 26 38 88 7 119 -20 20 -33 20 -709 20 l-690 0 -20 -26z" fill="white"/>
<path d="M501 3794 c-20 -26 -21 -38 -21 -361 l0 -334 25 -24 24 -25 341 0
c323 0 341 1 359 19 11 11 23 35 26 53 3 18 5 171 3 340 l-3 306 -24 26 -24
26 -343 0 -343 0 -20 -26z m599 -359 l0 -225 -230 0 -230 0 0 225 0 225 230 0
230 0 0 -225z" fill="white"/>
<path d="M1623 3720 c-45 -18 -58 -95 -23 -130 19 -19 33 -20 491 -20 288 0
477 4 489 10 25 13 41 65 30 94 -21 57 -15 56 -510 55 -250 0 -465 -4 -477 -9z" fill="white"/>
<path d="M1600 3280 c-28 -28 -27 -90 1 -116 20 -18 51 -19 873 -22 468 -1
866 0 884 3 18 3 42 15 53 26 26 26 25 83 -1 109 -20 20 -33 20 -905 20 -872
0 -885 0 -905 -20z" fill="white"/>
<path d="M524 2526 c-17 -8 -34 -21 -38 -31 -3 -9 -6 -167 -6 -351 l0 -335 25
-24 24 -25 341 0 c323 0 341 1 359 19 11 11 23 35 26 53 3 18 5 174 3 345 -3
310 -3 313 -26 335 -22 23 -24 23 -350 25 -259 2 -333 0 -358 -11z m574 -378
l2 -228 -230 0 -230 0 0 230 0 230 228 -2 227 -3 3 -227z" fill="white"/>
<path d="M1606 2419 c-20 -16 -26 -29 -26 -59 0 -30 6 -43 26 -59 26 -21 36
-21 491 -21 284 0 471 4 483 10 25 13 41 65 30 94 -21 57 -14 56 -516 56 -452
0 -462 0 -488 -21z" fill="white"/>
<path d="M524 1246 c-17 -8 -34 -21 -38 -31 -3 -9 -6 -167 -6 -351 l0 -335 25
-24 24 -25 336 0 c200 0 344 4 355 10 35 19 40 64 40 375 0 337 -3 359 -56
381 -48 20 -634 20 -680 0z m574 -378 l2 -228 -230 0 -230 0 0 230 0 230 228
-2 227 -3 3 -227z" fill="white"/>
<path d="M1606 1139 c-20 -16 -26 -29 -26 -59 0 -30 6 -43 26 -59 26 -21 36
-21 491 -21 284 0 471 4 483 10 10 5 23 23 28 40 13 36 -1 86 -28 100 -12 6
-199 10 -483 10 -455 0 -465 0 -491 -21z" fill="white"/>
</g>
</svg>
