<?xml version="1.0" standalone="no"?>
<!DOCTYPE svg PUBLIC "-//W3C//DTD SVG 20010904//EN"
 "http://www.w3.org/TR/2001/REC-SVG-20010904/DTD/svg10.dtd">
<svg version="1.0" xmlns="http://www.w3.org/2000/svg"
 width="512.000000pt" height="512.000000pt" viewBox="0 0 512.000000 512.000000"
 preserveAspectRatio="xMidYMid meet">

<g transform="translate(0.000000,512.000000) scale(0.100000,-0.100000)"
fill="#000000" stroke="none">
<path d="M1495 5100 c-58 -28 -1459 -1432 -1480 -1482 -13 -33 -15 -162 -15
-1060 0 -997 0 -1023 20 -1062 28 -58 1431 -1459 1482 -1481 33 -13 162 -15
1060 -15 997 0 1023 0 1062 20 58 28 1459 1431 1481 1482 13 33 15 162 15
1058 0 896 -2 1025 -15 1058 -22 51 -1423 1454 -1481 1482 -39 20 -65 20
-1065 20 -1001 0 -1025 0 -1064 -20z m2662 -942 l663 -663 0 -935 0 -935 -662
-662 -663 -663 -935 0 -935 0 -662 662 -663 663 0 935 0 935 662 662 663 663
935 0 935 0 662 -662z" fill="white"/>
<path d="M940 3145 c-106 -30 -190 -99 -232 -190 -33 -73 -31 -181 4 -250 50
-95 81 -115 330 -215 132 -52 163 -68 193 -101 59 -65 44 -139 -38 -192 -99
-64 -262 -39 -376 58 -61 52 -90 62 -132 45 -40 -17 -59 -47 -59 -94 0 -36 6
-46 58 -96 126 -122 332 -177 497 -134 260 67 369 339 215 534 -47 59 -123
103 -291 170 -86 34 -170 70 -187 80 -41 25 -52 76 -25 122 56 96 210 102 357
13 74 -45 116 -46 157 -6 77 78 1 176 -188 242 -78 27 -211 34 -283 14z" fill="white"/>
<path d="M1609 3132 c-26 -24 -32 -36 -32 -72 0 -36 6 -48 32 -72 30 -27 35
-28 136 -28 l105 0 0 -460 c0 -493 1 -499 51 -526 45 -23 78 -17 115 20 l34
34 0 466 0 466 103 0 c116 0 140 10 163 66 12 29 12 39 0 68 -28 66 -27 66
-368 66 l-308 0 -31 -28z" fill="white"/>
<path d="M2802 3140 c-109 -29 -187 -74 -272 -160 -87 -86 -131 -163 -160
-276 -36 -141 -18 -294 52 -427 42 -81 164 -203 245 -245 133 -70 286 -88 427
-52 113 29 190 73 276 160 87 86 131 163 160 276 36 141 18 294 -52 427 -42
81 -164 203 -245 245 -132 69 -291 88 -431 52z m312 -218 c91 -42 149 -100
194 -190 35 -72 37 -81 37 -172 0 -91 -2 -100 -37 -172 -45 -91 -103 -147
-196 -191 -61 -29 -76 -32 -162 -32 -86 0 -101 3 -160 31 -95 46 -153 101
-197 192 -36 72 -38 81 -38 171 0 87 3 102 32 163 40 85 97 147 172 186 78 42
122 52 213 48 61 -3 92 -11 142 -34z" fill="white"/>
<path d="M3774 3150 c-55 -23 -54 -10 -54 -592 l0 -537 23 -26 c14 -17 36 -28
63 -32 36 -5 46 -1 75 25 l34 30 3 186 c4 217 -16 194 167 199 107 2 126 6
178 31 74 36 147 109 184 183 25 52 28 68 28 158 0 93 -2 105 -33 167 -40 83
-119 158 -200 189 -51 21 -76 24 -252 26 -107 1 -205 -2 -216 -7z m424 -223
c101 -67 110 -204 19 -284 -42 -36 -64 -42 -200 -45 l-97 -3 0 183 0 184 118
-4 c110 -3 122 -5 160 -31z" fill="white"/>
</g>
</svg>
